# xmcd
#
# Track frame offsets:
#	150
#	19275
#	37200
#	56625
#	73725
#	90600
#	105375
#	117600
#	129300
#	147150
#	161625
#	178275
#
# Disc length: 2552 seconds
#
# Revision: 1
# Processed by: cddbd v1.5.1PL2 Copyright (c) Steve Scherf et al.
# Submitted via: audiograbber 1.81.03
#
DISCID=b109f60c
DTITLE=DIAFOROI - ELAFROLAIKA TRAGOUDIA
DYEAR=1900
DGENRE=Dance Hall
TTITLE0=DIMITRIOU - Stasou loipon
TTITLE1=DANTIS - Aman
TTITLE2=GARMPI - O kafes
TTITLE3=PANTAZIS - Ena asteio
TTITLE4=VISSI - Se skeftomai syneheia
TTITLE5=ALEXIA - Tha pio apopse to feggari
TTITLE6=DIONYSIOU - Mporo
TTITLE7=GIAGOUSI - Siganopotamaki
TTITLE8=KONSTANTINA - Ah i zoi
TTITLE9=KOUTRAS - M' anastises kardia mou
TTITLE10=VOSSOU - Hantres mple
TTITLE11=PAPADOPOULOU - Latreia
EXTD=
EXTT0=
EXTT1=
EXTT2=
EXTT3=
EXTT4=
EXTT5=
EXTT6=
EXTT7=
EXTT8=
EXTT9=
EXTT10=
EXTT11=
PLAYORDER=
